# Blender v2.80 (sub 75) OBJ File: ''
# www.blender.org
mtllib Chair.mtl
o Cube.002_Cube.011
v -0.997693 1.202358 1.009852
v -0.894999 1.099664 1.112546
v -0.967614 1.129742 1.082468
v -0.997693 1.202358 -1.048821
v -0.894999 1.099664 -1.151516
v -0.967614 1.129742 -1.121437
v -0.997693 2.996969 -1.048821
v -0.894999 3.099664 -1.151516
v -0.967614 3.069585 -1.121437
v 1.002307 1.202358 1.009852
v 0.899613 1.099664 1.112546
v 0.972229 1.129742 1.082468
v 1.002307 1.202358 -1.048821
v 0.899613 1.099664 -1.151516
v 0.972229 1.129742 -1.121437
v 1.002307 2.996969 -1.048821
v 0.899613 3.099664 -1.151516
v 0.972229 3.069585 -1.121437
v -0.997693 1.202358 -0.612525
v -0.894999 1.099664 -0.647444
v -0.967614 1.129742 -0.637217
v -0.997693 2.996969 -0.908080
v -0.894999 2.999260 -0.803535
v -0.894999 3.099664 -0.927797
v -0.967614 2.998115 -0.834539
v -0.954289 3.056744 -0.859782
v -0.894999 3.070730 -0.848481
v -0.967614 3.069111 -0.922405
v 1.002307 1.202358 -0.612525
v 0.899613 1.099664 -0.647444
v 0.972229 1.129742 -0.637217
v 1.002307 2.996969 -0.908080
v 0.899613 3.099664 -0.927797
v 0.899613 2.999260 -0.803535
v 0.972229 3.069111 -0.922405
v 0.958903 3.056744 -0.859782
v 0.899613 3.070730 -0.848481
v 0.972229 2.998115 -0.834539
v -0.997693 1.553776 -1.048821
v -0.894999 1.553776 -1.151516
v -0.967614 1.553776 -1.121437
v 0.899613 1.553776 -1.151516
v 1.002307 1.553776 -1.048821
v 0.972229 1.553776 -1.121437
v 0.899613 1.553776 -0.493031
v 1.002307 1.451082 -0.576008
v 0.972229 1.523698 -0.517334
v -0.997693 1.451082 -0.576008
v -0.894999 1.553776 -0.493031
v -0.967614 1.523698 -0.517334
v -0.997693 1.276024 1.009852
v -0.894999 1.296451 1.112546
v -0.967614 1.290468 1.082468
v -0.997693 1.451082 0.834794
v -0.894999 1.553776 0.855221
v -0.967614 1.523698 0.849238
v -0.997693 1.399809 0.958579
v -0.894999 1.478408 1.037178
v -0.967614 1.455387 1.014157
v 1.002307 1.451082 0.834794
v 0.899613 1.553776 0.855221
v 0.972229 1.523698 0.849238
v 1.002307 1.276024 1.009852
v 0.899613 1.296451 1.112546
v 0.972229 1.290468 1.082468
v 1.002307 1.399809 0.958579
v 0.899613 1.478408 1.037178
v 0.972229 1.455387 1.014156
v -0.800929 0.000000 0.864037
v -0.946421 0.000000 0.864037
v -0.800929 0.000000 -0.864037
v -0.946421 0.000000 -0.864037
v -0.800929 1.116177 1.049608
v -0.946420 1.116177 1.049608
v -0.800929 1.116177 -1.049608
v -0.946420 1.116177 -1.049608
v -0.800929 0.155355 0.740783
v -0.946421 0.155355 0.740783
v -0.800929 0.155355 -0.740783
v -0.946421 0.155355 -0.740783
v -0.800929 0.960821 0.862429
v -0.946420 0.960821 0.862429
v -0.800929 0.960821 -0.862429
v -0.946420 0.960821 -0.862429
v 0.946421 0.000000 0.864037
v 0.800929 0.000000 0.864037
v 0.946421 0.000000 -0.864037
v 0.800929 0.000000 -0.864037
v 0.946421 1.116177 1.049608
v 0.800929 1.116177 1.049608
v 0.946421 1.116177 -1.049608
v 0.800929 1.116177 -1.049608
v 0.946421 0.155355 0.740783
v 0.800929 0.155355 0.740783
v 0.946421 0.155355 -0.740783
v 0.800929 0.155355 -0.740783
v 0.946421 0.960821 0.862429
v 0.800929 0.960821 0.862429
v 0.946421 0.960821 -0.862429
v 0.800929 0.960821 -0.862429
vt 0.375000 0.000000
vt 0.625000 0.000000
vt 0.625000 0.250000
vt 0.375000 0.250000
vt 0.625000 0.500000
vt 0.375000 0.500000
vt 0.375000 0.750000
vt 0.625000 0.750000
vt 0.625000 1.000000
vt 0.375000 1.000000
vt 0.625000 0.500000
vt 0.625000 0.750000
vt 0.375000 1.000000
vt 0.375000 0.750000
vt 0.375000 0.500000
vt 0.375000 0.250000
vt 0.625000 0.000000
vt 0.625000 0.250000
vt 0.625000 1.000000
vt 0.375000 0.000000
vt 0.625000 1.000000
vt 0.625000 0.750000
vt 0.375000 0.750000
vt 0.375000 1.000000
vt 0.625000 0.750000
vt 0.625000 0.500000
vt 0.375000 0.500000
vt 0.375000 0.750000
vt 0.625000 0.500000
vt 0.625000 0.250000
vt 0.375000 0.250000
vt 0.375000 0.500000
vt 0.625000 0.250000
vt 0.625000 0.000000
vt 0.375000 0.000000
vt 0.375000 0.250000
vt 0.375000 0.000000
vt 0.625000 0.000000
vt 0.625000 0.250000
vt 0.375000 0.250000
vt 0.625000 0.500000
vt 0.375000 0.500000
vt 0.375000 0.750000
vt 0.625000 0.750000
vt 0.625000 1.000000
vt 0.375000 1.000000
vt 0.625000 0.500000
vt 0.625000 0.750000
vt 0.375000 1.000000
vt 0.375000 0.750000
vt 0.375000 0.500000
vt 0.375000 0.250000
vt 0.625000 0.000000
vt 0.625000 0.250000
vt 0.625000 1.000000
vt 0.375000 0.000000
vt 0.625000 1.000000
vt 0.625000 0.750000
vt 0.375000 0.750000
vt 0.375000 1.000000
vt 0.625000 0.750000
vt 0.625000 0.500000
vt 0.375000 0.500000
vt 0.375000 0.750000
vt 0.625000 0.500000
vt 0.625000 0.250000
vt 0.375000 0.250000
vt 0.375000 0.500000
vt 0.625000 0.250000
vt 0.625000 0.000000
vt 0.375000 0.000000
vt 0.375000 0.250000
vt 0.387837 0.576875
vt 0.418927 0.572096
vt 0.418927 0.714590
vt 0.412518 0.730844
vt 0.397045 0.738355
vt 0.387837 0.738900
vt 0.418927 0.183975
vt 0.612163 0.195702
vt 0.612163 0.227544
vt 0.431764 0.238011
vt 0.375000 0.762837
vt 0.399598 0.762837
vt 0.399598 0.987163
vt 0.375000 0.987163
vt 0.387837 0.514529
vt 0.431764 0.511989
vt 0.418927 0.570909
vt 0.431764 0.262837
vt 0.625000 0.262837
vt 0.625000 0.487163
vt 0.431764 0.487163
vt 0.637837 0.500000
vt 0.862163 0.500000
vt 0.862163 0.552689
vt 0.637837 0.552689
vt 0.615078 0.199348
vt 0.441686 0.199348
vt 0.441686 0.576875
vt 0.615078 0.576875
vt 0.431764 0.164235
vt 0.431764 0.008889
vt 0.431764 0.581948
vt 0.431764 0.494137
vt 0.431764 0.762837
vt 0.431764 0.987163
vt 0.612163 0.522456
vt 0.612163 0.554298
vt 0.418927 0.566025
vt 0.137837 0.576875
vt 0.362163 0.576875
vt 0.362163 0.750000
vt 0.137837 0.750000
vt 0.137837 0.500000
vt 0.362163 0.500000
vt 0.375000 0.262837
vt 0.375000 0.487163
vt 0.431764 0.741111
vt 0.431764 0.585765
vt 0.387837 0.173125
vt 0.418927 0.179091
vt 0.387837 0.235471
vt 0.613108 0.173125
vt 0.620762 0.173125
vt 0.625000 0.196041
vt 0.441686 0.173125
vt 0.435958 0.173125
vt 0.431764 0.197971
vt 0.875000 0.553959
vt 0.875000 0.568708
vt 0.862163 0.576875
vt 0.625000 0.553959
vt 0.625000 0.568708
vt 0.613108 0.576875
vt 0.637837 0.576875
vt 0.630425 0.576875
vt 0.625000 0.197971
vt 0.625000 0.181980
vt 0.615078 0.173125
vt 0.125000 0.747041
vt 0.125000 0.577881
vt 0.375000 0.172119
vt 0.375000 0.002959
vt 0.387837 0.011100
vt 0.875000 0.507084
vt 0.625000 0.242916
vt 0.378760 0.250000
vt 0.431764 0.250000
vt 0.378760 0.500000
vt 0.431764 0.500000
vt 0.375000 0.504587
vt 0.375000 0.577378
vt 0.125000 0.576875
vt 0.125000 0.504587
vt 0.375000 0.245413
vt 0.375000 0.173125
vt 0.375000 0.747041
vt 0.625000 0.507084
vt 0.621240 0.250000
vt 0.621240 0.500000
vt 0.625000 0.576875
vt 0.431764 0.576875
vt 0.431764 0.173125
vt 0.431764 0.576875
vt 0.431478 0.713198
vt 0.422939 0.737958
vt 0.431764 0.571323
vt 0.431764 0.491779
vt 0.418927 0.035410
vt 0.412518 0.019156
vt 0.422939 0.012042
vt 0.431478 0.036802
vt 0.431764 0.591926
vt 0.431764 0.739687
vt 0.420904 0.740339
vt 0.400289 0.749687
vt 0.400576 0.750000
vt 0.429729 0.750000
vt 0.397045 0.011645
vt 0.400289 0.000313
vt 0.420904 0.009661
vt 0.429729 1.000000
vt 0.400576 1.000000
vt 0.398851 0.750000
vt 0.378760 0.750000
vt 0.378760 0.000000
vt 0.398851 0.000000
vt 0.398851 1.000000
vt 0.378760 1.000000
vt 0.431764 0.000000
vt 0.431764 0.584369
vt 0.431764 0.038233
vt 0.418927 0.177904
vt 0.431764 0.711767
vt 0.431764 0.487710
vt 0.431764 0.173125
vn 0.0000 -1.0000 0.0000
vn 0.0000 -0.1640 -0.9865
vn 0.0000 -0.1640 0.9865
vn -1.0000 0.0000 0.0000
vn 1.0000 -0.0000 0.0000
vn 0.0000 0.1493 -0.9888
vn 0.0000 0.1493 0.9888
vn 0.0000 1.0000 0.0000
vn 0.0000 0.0000 1.0000
vn 0.0000 0.0000 -1.0000
vn 0.0000 0.2100 0.9777
vn 0.0000 0.3827 0.9239
vn 0.0000 0.9239 0.3827
vn -0.8707 0.3825 0.3091
vn -0.3177 0.4752 0.8205
vn -0.3177 0.9020 0.2923
vn 0.8707 0.3825 0.3091
vn 0.3177 0.9020 0.2923
vn 0.3177 0.4752 0.8205
vn -0.3827 -0.9239 0.0000
vn -0.9239 -0.3827 0.0000
vn -0.3850 0.9229 0.0010
vn -0.9233 0.3840 0.0005
vn -0.3827 0.0000 -0.9239
vn -0.9239 0.0000 -0.3827
vn 0.9239 0.0000 -0.3827
vn 0.3827 0.0000 -0.9239
vn 0.3827 -0.9239 0.0000
vn 0.9239 -0.3827 0.0000
vn 0.3850 0.9229 0.0010
vn 0.9233 0.3840 0.0005
vn 0.0000 0.5324 0.8465
vn 0.0000 0.9394 0.3427
vn 0.3853 0.1939 0.9022
vn 0.9234 0.0807 0.3752
vn -0.9234 0.0806 0.3752
vn -0.3853 0.1939 0.9022
vn 0.9239 0.3536 0.1464
vn 0.3827 0.8536 0.3536
vn -0.9239 0.3536 0.1464
vn -0.3827 0.8536 0.3536
vn 0.9239 0.1464 0.3536
vn 0.3827 0.3536 0.8536
vn -0.9239 0.1464 0.3536
vn -0.3827 0.3536 0.8536
vn 0.9239 0.0000 0.3827
vn 0.3827 0.0000 0.9239
vn -0.9239 0.0000 0.3827
vn -0.3827 0.0000 0.9239
vn -0.3827 0.9239 0.0000
vn -0.9239 0.3827 0.0000
vn 0.9239 0.3827 0.0000
vn 0.3827 0.9239 0.0000
g Cube.002_Cube.011_Legs
usemtl Legs
s off
f 69/1/1 70/2/1 72/3/1 71/4/1
f 71/4/2 72/3/2 76/5/2 75/6/2
f 73/7/3 74/8/3 70/9/3 69/10/3
f 74/8/4 76/5/4 84/11/4 82/12/4
f 73/7/5 69/10/5 77/13/5 81/14/5
f 71/4/5 75/6/5 83/15/5 79/16/5
f 72/3/4 70/2/4 78/17/4 80/18/4
f 70/9/4 74/8/4 82/12/4 78/19/4
f 69/1/5 71/4/5 79/16/5 77/20/5
f 75/6/5 73/7/5 81/14/5 83/15/5
f 76/5/4 72/3/4 80/18/4 84/11/4
f 77/21/6 78/22/6 82/23/6 81/24/6
f 81/25/1 82/26/1 84/27/1 83/28/1
f 83/29/7 84/30/7 80/31/7 79/32/7
f 79/33/8 80/34/8 78/35/8 77/36/8
f 85/37/1 86/38/1 88/39/1 87/40/1
f 87/40/2 88/39/2 92/41/2 91/42/2
f 89/43/3 90/44/3 86/45/3 85/46/3
f 90/44/4 92/41/4 100/47/4 98/48/4
f 89/43/5 85/46/5 93/49/5 97/50/5
f 87/40/5 91/42/5 99/51/5 95/52/5
f 88/39/4 86/38/4 94/53/4 96/54/4
f 86/45/4 90/44/4 98/48/4 94/55/4
f 85/37/5 87/40/5 95/52/5 93/56/5
f 91/42/5 89/43/5 97/50/5 99/51/5
f 92/41/4 88/39/4 96/54/4 100/47/4
f 93/57/6 94/58/6 98/59/6 97/60/6
f 97/61/1 98/62/1 100/63/1 99/64/1
f 99/65/7 100/66/7 96/67/7 95/68/7
f 95/69/8 96/70/8 94/71/8 93/72/8
g Cube.002_Cube.011_Chair
usemtl Chair
f 29/73/5 46/74/5 60/75/5 66/76/5 63/77/5 10/78/5
f 48/79/4 22/80/4 7/81/4 39/82/4
f 11/83/9 64/84/9 52/85/9 2/86/9
f 13/87/5 43/88/5 46/89/5 29/73/5
f 40/90/10 8/91/10 17/92/10 42/93/10
f 17/94/8 8/95/8 24/96/8 33/97/8
f 34/98/11 23/99/11 49/100/11 45/101/11
f 45/102/8 49/103/8 55/104/8 61/105/8
f 67/106/12 58/107/12 52/85/12 64/84/12
f 43/88/5 16/108/5 32/109/5 46/110/5
f 20/111/1 30/112/1 11/113/1 2/114/1
f 5/115/1 14/116/1 30/112/1 20/111/1
f 5/117/10 40/90/10 42/93/10 14/118/10
f 61/105/13 55/104/13 58/119/13 67/120/13
f 19/121/4 48/122/4 39/82/4 4/123/4
f 22/80/14 25/124/14 26/125/14 28/126/14
f 23/99/15 27/127/15 26/128/15 25/129/15
f 24/96/16 28/130/16 26/131/16 27/132/16
f 32/109/17 35/133/17 36/134/17 38/135/17
f 33/97/18 37/136/18 36/137/18 35/133/18
f 34/98/19 38/138/19 36/139/19 37/140/19
f 20/111/20 2/114/20 3/141/20 21/142/20
f 21/143/21 3/144/21 1/145/21 19/121/21
f 24/96/22 8/95/22 9/146/22 28/130/22
f 28/126/23 9/147/23 7/81/23 22/80/23
f 40/90/24 5/117/24 6/148/24 41/149/24
f 41/149/25 6/148/25 4/123/25 39/82/25
f 43/88/26 13/87/26 15/150/26 44/151/26
f 44/151/27 15/150/27 14/118/27 42/93/27
f 30/112/28 14/116/28 15/152/28 31/153/28
f 31/153/29 15/152/29 13/87/29 29/73/29
f 5/115/20 20/111/20 21/154/20 6/155/20
f 6/156/21 21/157/21 19/121/21 4/123/21
f 11/113/28 30/112/28 31/153/28 12/158/28
f 12/158/29 31/153/29 29/73/29 10/78/29
f 17/94/30 33/97/30 35/133/30 18/159/30
f 18/159/31 35/133/31 32/109/31 16/108/31
f 23/99/32 34/98/32 37/140/32 27/127/32
f 27/132/33 37/136/33 33/97/33 24/96/33
f 8/91/24 40/90/24 41/149/24 9/160/24
f 9/160/25 41/149/25 39/82/25 7/81/25
f 16/108/26 43/88/26 44/151/26 18/161/26
f 18/161/27 44/151/27 42/93/27 17/92/27
f 34/98/34 45/101/34 47/162/34 38/138/34
f 38/135/35 47/163/35 46/110/35 32/109/35
f 22/80/36 48/79/36 50/164/36 25/124/36
f 25/129/37 50/165/37 49/100/37 23/99/37
f 66/76/38 60/75/38 62/166/38 68/167/38
f 68/168/39 62/169/39 61/105/39 67/120/39
f 54/170/40 57/171/40 59/172/40 56/173/40
f 56/174/41 59/175/41 58/119/41 55/104/41
f 63/77/42 66/76/42 68/176/42 65/177/42
f 65/178/43 68/179/43 67/106/43 64/84/43
f 57/171/44 51/180/44 53/181/44 59/182/44
f 59/183/45 53/184/45 52/85/45 58/107/45
f 10/78/46 63/77/46 65/185/46 12/186/46
f 12/186/47 65/185/47 64/84/47 11/83/47
f 51/180/48 1/145/48 3/187/48 53/188/48
f 53/189/49 3/190/49 2/86/49 52/85/49
f 55/104/50 49/103/50 50/191/50 56/192/50
f 56/193/51 50/164/51 48/194/51 54/170/51
f 60/75/52 46/74/52 47/163/52 62/195/52
f 62/196/53 47/197/53 45/102/53 61/105/53
f 1/145/4 51/180/4 57/171/4 54/170/4 48/194/4 19/121/4
f 75/6/8 76/5/8 74/8/8 73/7/8
f 91/42/8 92/41/8 90/44/8 89/43/8
